# This file uses centimeters as units for non-parametric coordinates.

mtllib cube2.mtl
g default
v -1.078176 0.015851 1.734511
v 1.078176 0.015851 1.734511
v -1.078176 1.663110 1.734511
v 1.078176 1.663110 1.734511
v -1.078176 1.663110 -1.734511
v 1.078176 1.663110 -1.734511
v -1.078176 0.015851 -1.734511
v 1.078176 0.015851 -1.734511
vt 0.333781 0.277533
vt 0.503347 0.277533
vt 0.503347 0.443735
vt 0.333781 0.443735
vt 0.024423 0.443735
vt 0.812705 0.443735
vt 0.024423 0.277533
vt 0.982272 0.443735
vt 0.812705 0.277533
vt 0.982272 0.277533
vn 0.000000 0.000000 1.000000
vn 0.000000 0.000000 1.000000
vn 0.000000 0.000000 1.000000
vn 0.000000 0.000000 1.000000
vn 0.000000 0.000000 -1.000000
vn 0.000000 0.000000 -1.000000
vn 0.000000 0.000000 -1.000000
vn 0.000000 0.000000 -1.000000
vn 1.000000 0.000000 0.000000
vn 1.000000 0.000000 0.000000
vn 1.000000 0.000000 0.000000
vn 1.000000 0.000000 0.000000
vn -1.000000 0.000000 0.000000
vn -1.000000 0.000000 0.000000
vn -1.000000 0.000000 0.000000
vn -1.000000 0.000000 0.000000
s off
g pCube2
usemtl initialShadingGroup
f 1/1/1 2/2/2 4/3/3 3/4/4
f 5/8/5 6/6/6 8/9/7 7/10/8
f 2/2/9 8/9/10 6/6/11 4/3/12
f 7/7/13 1/1/14 3/4/15 5/5/16
